<svg width="76" height="76" viewBox="0 0 76 76" fill="none" xmlns="http://www.w3.org/2000/svg">
<g filter="url(#filter0_d_30_1368)">
<circle cx="38" cy="34" r="28" fill="#238DB9"/>
<path d="M32 26C32 25.7348 32.1054 25.4804 32.2929 25.2929C32.4804 25.1054 32.7348 25 33 25H49C49.2652 25 49.5196 25.1054 49.7071 25.2929C49.8946 25.4804 50 25.7348 50 26C50 26.2652 49.8946 26.5196 49.7071 26.7071C49.5196 26.8946 49.2652 27 49 27H33C32.7348 27 32.4804 26.8946 32.2929 26.7071C32.1054 26.5196 32 26.2652 32 26ZM49 33H33C32.7348 33 32.4804 33.1054 32.2929 33.2929C32.1054 33.4804 32 33.7348 32 34C32 34.2652 32.1054 34.5196 32.2929 34.7071C32.4804 34.8946 32.7348 35 33 35H49C49.2652 35 49.5196 34.8946 49.7071 34.7071C49.8946 34.5196 50 34.2652 50 34C50 33.7348 49.8946 33.4804 49.7071 33.2929C49.5196 33.1054 49.2652 33 49 33ZM49 41H33C32.7348 41 32.4804 41.1054 32.2929 41.2929C32.1054 41.4804 32 41.7348 32 42C32 42.2652 32.1054 42.5196 32.2929 42.7071C32.4804 42.8946 32.7348 43 33 43H49C49.2652 43 49.5196 42.8946 49.7071 42.7071C49.8946 42.5196 50 42.2652 50 42C50 41.7348 49.8946 41.4804 49.7071 41.2929C49.5196 41.1054 49.2652 41 49 41ZM27.5 24.5C27.2033 24.5 26.9133 24.588 26.6666 24.7528C26.42 24.9176 26.2277 25.1519 26.1142 25.426C26.0006 25.7001 25.9709 26.0017 26.0288 26.2926C26.0867 26.5836 26.2296 26.8509 26.4393 27.0607C26.6491 27.2704 26.9164 27.4133 27.2074 27.4712C27.4983 27.5291 27.7999 27.4994 28.074 27.3858C28.3481 27.2723 28.5824 27.08 28.7472 26.8334C28.912 26.5867 29 26.2967 29 26C29 25.6022 28.842 25.2206 28.5607 24.9393C28.2794 24.658 27.8978 24.5 27.5 24.5ZM27.5 32.5C27.2033 32.5 26.9133 32.588 26.6666 32.7528C26.42 32.9176 26.2277 33.1519 26.1142 33.426C26.0006 33.7001 25.9709 34.0017 26.0288 34.2926C26.0867 34.5836 26.2296 34.8509 26.4393 35.0607C26.6491 35.2704 26.9164 35.4133 27.2074 35.4712C27.4983 35.5291 27.7999 35.4993 28.074 35.3858C28.3481 35.2723 28.5824 35.08 28.7472 34.8334C28.912 34.5867 29 34.2967 29 34C29 33.6022 28.842 33.2206 28.5607 32.9393C28.2794 32.658 27.8978 32.5 27.5 32.5ZM27.5 40.5C27.2033 40.5 26.9133 40.588 26.6666 40.7528C26.42 40.9176 26.2277 41.1519 26.1142 41.426C26.0006 41.7001 25.9709 42.0017 26.0288 42.2926C26.0867 42.5836 26.2296 42.8509 26.4393 43.0607C26.6491 43.2704 26.9164 43.4133 27.2074 43.4712C27.4983 43.5291 27.7999 43.4993 28.074 43.3858C28.3481 43.2723 28.5824 43.08 28.7472 42.8334C28.912 42.5867 29 42.2967 29 42C29 41.6022 28.842 41.2206 28.5607 40.9393C28.2794 40.658 27.8978 40.5 27.5 40.5Z" fill="white"/>
</g>
<defs>
<filter id="filter0_d_30_1368" x="0" y="0" width="76" height="76" filterUnits="userSpaceOnUse" color-interpolation-filters="sRGB">
<feFlood flood-opacity="0" result="BackgroundImageFix"/>
<feColorMatrix in="SourceAlpha" type="matrix" values="0 0 0 0 0 0 0 0 0 0 0 0 0 0 0 0 0 0 127 0" result="hardAlpha"/>
<feOffset dy="4"/>
<feGaussianBlur stdDeviation="5"/>
<feComposite in2="hardAlpha" operator="out"/>
<feColorMatrix type="matrix" values="0 0 0 0 0 0 0 0 0 0 0 0 0 0 0 0 0 0 0.25 0"/>
<feBlend mode="normal" in2="BackgroundImageFix" result="effect1_dropShadow_30_1368"/>
<feBlend mode="normal" in="SourceGraphic" in2="effect1_dropShadow_30_1368" result="shape"/>
</filter>
</defs>
</svg>
