<svg width="76" height="76" viewBox="0 0 76 76" fill="none" xmlns="http://www.w3.org/2000/svg">
<g filter="url(#filter0_d_28_1485)">
<circle cx="38" cy="34" r="28" fill="white"/>
<path d="M47.7075 42.2924C47.8004 42.3854 47.8741 42.4957 47.9244 42.6171C47.9747 42.7384 48.0006 42.8686 48.0006 42.9999C48.0006 43.1313 47.9747 43.2614 47.9244 43.3828C47.8741 43.5042 47.8004 43.6145 47.7075 43.7074C47.6146 43.8004 47.5043 43.8741 47.3829 43.9243C47.2615 43.9746 47.1314 44.0005 47 44.0005C46.8686 44.0005 46.7385 43.9746 46.6171 43.9243C46.4957 43.8741 46.3854 43.8004 46.2925 43.7074L38 35.4137L29.7075 43.7074C29.5199 43.8951 29.2654 44.0005 29 44.0005C28.7346 44.0005 28.4801 43.8951 28.2925 43.7074C28.1049 43.5198 27.9995 43.2653 27.9995 42.9999C27.9995 42.7346 28.1049 42.4801 28.2925 42.2924L36.5863 33.9999L28.2925 25.7074C28.1049 25.5198 27.9995 25.2653 27.9995 24.9999C27.9995 24.7346 28.1049 24.4801 28.2925 24.2924C28.4801 24.1048 28.7346 23.9994 29 23.9994C29.2654 23.9994 29.5199 24.1048 29.7075 24.2924L38 32.5862L46.2925 24.2924C46.4801 24.1048 46.7346 23.9994 47 23.9994C47.2654 23.9994 47.5199 24.1048 47.7075 24.2924C47.8951 24.4801 48.0006 24.7346 48.0006 24.9999C48.0006 25.2653 47.8951 25.5198 47.7075 25.7074L39.4138 33.9999L47.7075 42.2924Z" fill="#238DB9"/>
</g>
<defs>
<filter id="filter0_d_28_1485" x="0" y="0" width="76" height="76" filterUnits="userSpaceOnUse" color-interpolation-filters="sRGB">
<feFlood flood-opacity="0" result="BackgroundImageFix"/>
<feColorMatrix in="SourceAlpha" type="matrix" values="0 0 0 0 0 0 0 0 0 0 0 0 0 0 0 0 0 0 127 0" result="hardAlpha"/>
<feOffset dy="4"/>
<feGaussianBlur stdDeviation="5"/>
<feComposite in2="hardAlpha" operator="out"/>
<feColorMatrix type="matrix" values="0 0 0 0 0 0 0 0 0 0 0 0 0 0 0 0 0 0 0.25 0"/>
<feBlend mode="normal" in2="BackgroundImageFix" result="effect1_dropShadow_28_1485"/>
<feBlend mode="normal" in="SourceGraphic" in2="effect1_dropShadow_28_1485" result="shape"/>
</filter>
</defs>
</svg>
