<svg width="72" height="72" viewBox="0 0 72 72" fill="none" xmlns="http://www.w3.org/2000/svg">
<path d="M58.5 9H51.75V6.75C51.75 6.15326 51.5129 5.58097 51.091 5.15901C50.669 4.73705 50.0967 4.5 49.5 4.5C48.9033 4.5 48.331 4.73705 47.909 5.15901C47.4871 5.58097 47.25 6.15326 47.25 6.75V9H24.75V6.75C24.75 6.15326 24.5129 5.58097 24.091 5.15901C23.669 4.73705 23.0967 4.5 22.5 4.5C21.9033 4.5 21.331 4.73705 20.909 5.15901C20.4871 5.58097 20.25 6.15326 20.25 6.75V9H13.5C12.3065 9 11.1619 9.47411 10.318 10.318C9.47411 11.1619 9 12.3065 9 13.5V58.5C9 59.6935 9.47411 60.8381 10.318 61.682C11.1619 62.5259 12.3065 63 13.5 63H58.5C59.6935 63 60.8381 62.5259 61.682 61.682C62.5259 60.8381 63 59.6935 63 58.5V13.5C63 12.3065 62.5259 11.1619 61.682 10.318C60.8381 9.47411 59.6935 9 58.5 9ZM20.25 13.5V15.75C20.25 16.3467 20.4871 16.919 20.909 17.341C21.331 17.7629 21.9033 18 22.5 18C23.0967 18 23.669 17.7629 24.091 17.341C24.5129 16.919 24.75 16.3467 24.75 15.75V13.5H47.25V15.75C47.25 16.3467 47.4871 16.919 47.909 17.341C48.331 17.7629 48.9033 18 49.5 18C50.0967 18 50.669 17.7629 51.091 17.341C51.5129 16.919 51.75 16.3467 51.75 15.75V13.5H58.5V22.5H13.5V13.5H20.25ZM58.5 58.5H13.5V27H58.5V58.5ZM31.5 33.75V51.75C31.5 52.3467 31.2629 52.919 30.841 53.341C30.419 53.7629 29.8467 54 29.25 54C28.6533 54 28.081 53.7629 27.659 53.341C27.2371 52.919 27 52.3467 27 51.75V37.3894L25.7569 38.0138C25.2228 38.2808 24.6045 38.3247 24.038 38.1359C23.4716 37.9471 23.0033 37.541 22.7362 37.0069C22.4692 36.4728 22.4253 35.8545 22.6141 35.288C22.8029 34.7216 23.209 34.2533 23.7431 33.9862L28.2431 31.7362C28.5863 31.5645 28.9677 31.4834 29.351 31.5007C29.7343 31.5179 30.1069 31.6329 30.4333 31.8347C30.7597 32.0365 31.029 32.3184 31.2157 32.6536C31.4024 32.9889 31.5003 33.3663 31.5 33.75ZM48.1388 42.3141L42.75 49.5H47.25C47.8467 49.5 48.419 49.7371 48.841 50.159C49.2629 50.581 49.5 51.1533 49.5 51.75C49.5 52.3467 49.2629 52.919 48.841 53.341C48.419 53.7629 47.8467 54 47.25 54H38.25C37.8321 54 37.4225 53.8836 37.0671 53.664C36.7117 53.4443 36.4244 53.13 36.2375 52.7562C36.0507 52.3825 35.9716 51.9641 36.0091 51.5479C36.0466 51.1318 36.1993 50.7343 36.45 50.4L44.5444 39.6084C44.7285 39.3633 44.8606 39.0832 44.9325 38.7852C45.0045 38.4872 45.0148 38.1777 44.9628 37.8755C44.9108 37.5734 44.7976 37.2851 44.6302 37.0283C44.4628 36.7715 44.2447 36.5516 43.9892 36.3822C43.7338 36.2127 43.4464 36.0972 43.1447 36.0428C42.843 35.9884 42.5334 35.9962 42.2348 36.0658C41.9363 36.1354 41.6551 36.2652 41.4085 36.4473C41.1619 36.6295 40.9552 36.8601 40.8009 37.125C40.6576 37.389 40.4627 37.6217 40.228 37.8092C39.9932 37.9968 39.7233 38.1354 39.4341 38.2169C39.1449 38.2984 38.8423 38.3212 38.5442 38.2839C38.2461 38.2466 37.9584 38.1499 37.6983 37.9996C37.4381 37.8494 37.2106 37.6485 37.0294 37.4089C36.8481 37.1693 36.7166 36.8958 36.6427 36.6045C36.5688 36.3133 36.554 36.0102 36.5992 35.7132C36.6444 35.4161 36.7485 35.1311 36.9056 34.875C37.6489 33.5888 38.7956 32.5837 40.1682 32.0155C41.5407 31.4473 43.0623 31.3478 44.4972 31.7323C45.9321 32.1168 47.2 32.9639 48.1045 34.1423C49.009 35.3207 49.4995 36.7645 49.5 38.25C49.5048 39.7174 49.0264 41.1456 48.1388 42.3141Z" fill="white"/>
</svg>
