<svg width="72" height="72" viewBox="0 0 72 72" fill="none" xmlns="http://www.w3.org/2000/svg">
<path d="M60.75 18H49.5V15.75C49.5 13.9598 48.7888 12.2429 47.523 10.977C46.2571 9.71116 44.5402 9 42.75 9H29.25C27.4598 9 25.7429 9.71116 24.477 10.977C23.2112 12.2429 22.5 13.9598 22.5 15.75V18H11.25C10.0565 18 8.91193 18.4741 8.06802 19.318C7.22411 20.1619 6.75 21.3065 6.75 22.5V58.5C6.75 59.6935 7.22411 60.8381 8.06802 61.682C8.91193 62.5259 10.0565 63 11.25 63H60.75C61.9435 63 63.0881 62.5259 63.932 61.682C64.7759 60.8381 65.25 59.6935 65.25 58.5V22.5C65.25 21.3065 64.7759 20.1619 63.932 19.318C63.0881 18.4741 61.9435 18 60.75 18ZM27 15.75C27 15.1533 27.2371 14.581 27.659 14.159C28.081 13.7371 28.6533 13.5 29.25 13.5H42.75C43.3467 13.5 43.919 13.7371 44.341 14.159C44.7629 14.581 45 15.1533 45 15.75V18H27V15.75ZM60.75 58.5H11.25V22.5H60.75V58.5ZM45 40.5C45 41.0967 44.7629 41.669 44.341 42.091C43.919 42.5129 43.3467 42.75 42.75 42.75H38.25V47.25C38.25 47.8467 38.0129 48.419 37.591 48.841C37.169 49.2629 36.5967 49.5 36 49.5C35.4033 49.5 34.831 49.2629 34.409 48.841C33.9871 48.419 33.75 47.8467 33.75 47.25V42.75H29.25C28.6533 42.75 28.081 42.5129 27.659 42.091C27.2371 41.669 27 41.0967 27 40.5C27 39.9033 27.2371 39.331 27.659 38.909C28.081 38.4871 28.6533 38.25 29.25 38.25H33.75V33.75C33.75 33.1533 33.9871 32.581 34.409 32.159C34.831 31.7371 35.4033 31.5 36 31.5C36.5967 31.5 37.169 31.7371 37.591 32.159C38.0129 32.581 38.25 33.1533 38.25 33.75V38.25H42.75C43.3467 38.25 43.919 38.4871 44.341 38.909C44.7629 39.331 45 39.9033 45 40.5Z" fill="white"/>
</svg>
