<svg width="72" height="72" viewBox="0 0 72 72" fill="none" xmlns="http://www.w3.org/2000/svg">
<path d="M31.5 60.75C31.5 61.3467 31.2629 61.919 30.841 62.341C30.419 62.7629 29.8467 63 29.25 63H13.5C12.3065 63 11.1619 62.5259 10.318 61.682C9.47411 60.8381 9 59.6935 9 58.5V13.5C9 12.3065 9.47411 11.1619 10.318 10.318C11.1619 9.47411 12.3065 9 13.5 9H29.25C29.8467 9 30.419 9.23705 30.841 9.65901C31.2629 10.081 31.5 10.6533 31.5 11.25C31.5 11.8467 31.2629 12.419 30.841 12.841C30.419 13.2629 29.8467 13.5 29.25 13.5H13.5V58.5H29.25C29.8467 58.5 30.419 58.7371 30.841 59.159C31.2629 59.581 31.5 60.1533 31.5 60.75ZM62.3419 34.4081L51.0919 23.1581C50.6697 22.7359 50.0971 22.4987 49.5 22.4987C48.9029 22.4987 48.3303 22.7359 47.9081 23.1581C47.4859 23.5803 47.2487 24.1529 47.2487 24.75C47.2487 25.3471 47.4859 25.9197 47.9081 26.3419L55.3191 33.75H29.25C28.6533 33.75 28.081 33.9871 27.659 34.409C27.2371 34.831 27 35.4033 27 36C27 36.5967 27.2371 37.169 27.659 37.591C28.081 38.0129 28.6533 38.25 29.25 38.25H55.3191L47.9081 45.6581C47.4859 46.0803 47.2487 46.6529 47.2487 47.25C47.2487 47.8471 47.4859 48.4197 47.9081 48.8419C48.3303 49.2641 48.9029 49.5013 49.5 49.5013C50.0971 49.5013 50.6697 49.2641 51.0919 48.8419L62.3419 37.5919C62.5511 37.3829 62.717 37.1348 62.8303 36.8616C62.9435 36.5885 63.0018 36.2957 63.0018 36C63.0018 35.7043 62.9435 35.4115 62.8303 35.1384C62.717 34.8652 62.5511 34.6171 62.3419 34.4081Z" fill="white"/>
</svg>
