<svg width="72" height="72" viewBox="0 0 72 72" fill="none" xmlns="http://www.w3.org/2000/svg">
<path d="M32.9766 44.415C35.9921 42.4074 38.2816 39.4827 39.5064 36.0733C40.7311 32.6639 40.8262 28.9508 39.7775 25.4832C38.7288 22.0156 36.592 18.9776 33.6831 16.8183C30.7743 14.659 27.2477 13.4932 23.625 13.4932C20.0023 13.4932 16.4757 14.659 13.5669 16.8183C10.658 18.9776 8.5212 22.0156 7.47251 25.4832C6.42381 28.9508 6.51888 32.6639 7.74365 36.0733C8.96842 39.4827 11.2579 42.4074 14.2734 44.415C8.81857 46.4255 4.15999 50.1459 0.992815 55.021C0.826359 55.2683 0.710739 55.5464 0.652674 55.8388C0.59461 56.1313 0.59526 56.4324 0.654587 56.7246C0.713914 57.0169 0.830733 57.2944 0.998256 57.541C1.16578 57.7877 1.38066 57.9986 1.63042 58.1615C1.88017 58.3244 2.15981 58.4361 2.45309 58.4899C2.74636 58.5438 3.04742 58.5389 3.33877 58.4754C3.63011 58.4119 3.90592 58.2911 4.15018 58.12C4.39443 57.949 4.60226 57.7311 4.76157 57.4791C6.80454 54.3369 9.60007 51.7548 12.8943 49.9674C16.1885 48.1799 19.8771 47.2437 23.625 47.2437C27.3729 47.2437 31.0615 48.1799 34.3557 49.9674C37.6499 51.7548 40.4455 54.3369 42.4884 57.4791C42.8185 57.9696 43.3282 58.3105 43.9076 58.4281C44.4869 58.5457 45.0893 58.4306 45.5844 58.1076C46.0796 57.7847 46.4277 57.2798 46.5536 56.7022C46.6795 56.1246 46.573 55.5207 46.2572 55.021C43.09 50.1459 38.4314 46.4255 32.9766 44.415ZM11.25 30.375C11.25 27.9275 11.9758 25.5349 13.3356 23.4998C14.6953 21.4648 16.6281 19.8786 18.8893 18.942C21.1505 18.0054 23.6387 17.7603 26.0392 18.2378C28.4398 18.7153 30.6448 19.8939 32.3755 21.6246C34.1061 23.3552 35.2847 25.5603 35.7622 27.9608C36.2397 30.3613 35.9946 32.8495 35.058 35.1107C34.1214 37.372 32.5352 39.3047 30.5002 40.6644C28.4651 42.0242 26.0725 42.75 23.625 42.75C20.3441 42.7463 17.1986 41.4413 14.8787 39.1213C12.5587 36.8014 11.2537 33.6559 11.25 30.375ZM70.3519 58.1344C69.8521 58.4603 69.2433 58.5743 68.6595 58.4515C68.0756 58.3286 67.5645 57.9788 67.2384 57.4791C65.1979 54.335 62.4027 51.7519 59.1078 49.9651C55.813 48.1784 52.1232 47.245 48.375 47.25C47.7783 47.25 47.206 47.013 46.784 46.591C46.3621 46.169 46.125 45.5967 46.125 45C46.125 44.4033 46.3621 43.831 46.784 43.409C47.206 42.9871 47.7783 42.75 48.375 42.75C50.1974 42.7483 51.997 42.3441 53.645 41.5663C55.2931 40.7885 56.7491 39.6562 57.9089 38.2505C59.0687 36.8448 59.9037 35.2002 60.3542 33.4344C60.8047 31.6685 60.8597 29.825 60.5152 28.0354C60.1706 26.2459 59.4351 24.5545 58.3611 23.0822C57.2871 21.6099 55.9012 20.3929 54.3024 19.5183C52.7035 18.6437 50.9313 18.133 49.1122 18.0227C47.2931 17.9124 45.4722 18.2053 43.7794 18.8803C43.5034 18.9996 43.2063 19.0624 42.9056 19.065C42.6049 19.0675 42.3068 19.0097 42.0288 18.8951C41.7508 18.7805 41.4986 18.6113 41.2872 18.3976C41.0757 18.1838 40.9092 17.9298 40.7975 17.6507C40.6858 17.3715 40.6312 17.0728 40.637 16.7721C40.6427 16.4715 40.7087 16.1751 40.8309 15.9003C40.9531 15.6256 41.1292 15.3782 41.3487 15.1727C41.5682 14.9672 41.8266 14.8077 42.1088 14.7038C45.9829 13.1587 50.2919 13.1031 54.2046 14.5477C58.1173 15.9923 61.3564 18.8346 63.297 22.5265C65.2376 26.2184 65.7423 30.4981 64.7137 34.5401C63.685 38.5821 61.1959 42.0999 57.7266 44.415C63.1814 46.4255 67.84 50.1459 71.0072 55.021C71.3331 55.5207 71.4471 56.1295 71.3243 56.7134C71.2014 57.2972 70.8516 57.8084 70.3519 58.1344Z" fill="white"/>
</svg>
