<svg width="20" height="20" viewBox="0 0 20 20" fill="none" xmlns="http://www.w3.org/2000/svg">
<path d="M10 15V16.875" stroke="#238DB9" stroke-width="1.5" stroke-linecap="round" stroke-linejoin="round"/>
<path d="M7.90625 10.9375C7.90625 11.3345 7.58445 11.6562 7.1875 11.6562C6.79055 11.6562 6.46875 11.3345 6.46875 10.9375C6.46875 10.5405 6.79055 10.2188 7.1875 10.2188C7.58445 10.2188 7.90625 10.5405 7.90625 10.9375Z" fill="#238DB9" stroke="#238DB9" stroke-width="0.125"/>
<path d="M13.5312 10.9375C13.5312 11.3345 13.2095 11.6562 12.8125 11.6562C12.4155 11.6562 12.0938 11.3345 12.0938 10.9375C12.0938 10.5405 12.4155 10.2188 12.8125 10.2188C13.2095 10.2188 13.5312 10.5405 13.5312 10.9375Z" fill="#238DB9" stroke="#238DB9" stroke-width="0.125"/>
<path d="M11.25 13.75L10 15L8.75 13.75" stroke="#238DB9" stroke-width="1.5" stroke-linecap="round" stroke-linejoin="round"/>
<path d="M11.875 3.74999L16.2344 2.66405C16.3166 2.64337 16.4021 2.6396 16.4858 2.653C16.5694 2.66639 16.6495 2.69666 16.7211 2.74197C16.7927 2.78727 16.8544 2.84667 16.9023 2.91654C16.9503 2.98642 16.9835 3.06531 17 3.14843L18.2812 9.99218C18.3984 10.6328 17.5781 11.0078 17.1719 10.4922L11.875 3.74999Z" stroke="#238DB9" stroke-width="1.5" stroke-linecap="round" stroke-linejoin="round"/>
<path d="M8.12499 3.74999L3.76561 2.66405C3.68344 2.64337 3.59791 2.6396 3.51424 2.653C3.43056 2.66639 3.35048 2.69666 3.27887 2.74197C3.20726 2.78727 3.14561 2.84667 3.09767 2.91654C3.04972 2.98642 3.01649 3.06531 2.99999 3.14843L1.71874 9.99218C1.60155 10.6328 2.42186 11.0078 2.82811 10.4922L8.12499 3.74999Z" stroke="#238DB9" stroke-width="1.5" stroke-linecap="round" stroke-linejoin="round"/>
<path d="M8.125 3.75H11.875" stroke="#238DB9" stroke-width="1.5" stroke-linecap="round" stroke-linejoin="round"/>
<path d="M16.25 9.32031V14.375C16.25 15.038 15.9866 15.6739 15.5178 16.1428C15.0489 16.6116 14.413 16.875 13.75 16.875H6.25C5.58696 16.875 4.95107 16.6116 4.48223 16.1428C4.01339 15.6739 3.75 15.038 3.75 14.375V9.32031" stroke="#238DB9" stroke-width="1.5" stroke-linecap="round" stroke-linejoin="round"/>
</svg>
