<svg width="370" height="575" viewBox="0 0 370 575" fill="none" xmlns="http://www.w3.org/2000/svg">
<path d="M291.889 473.784C248.749 473.784 213.778 402.37 213.778 314.277C213.778 226.183 248.749 154.769 291.889 154.769C335.028 154.769 370 226.183 370 314.277C370 402.37 335.028 473.784 291.889 473.784Z" fill="#246E31"/>
<path d="M292.606 315.931C288.71 246.499 280.859 199.599 280.78 199.134L282.484 198.845C282.562 199.311 290.427 246.286 294.33 315.808C297.931 379.972 298.8 477.025 282.484 575L280.78 574.716C297.068 476.908 296.201 380.002 292.606 315.931Z" fill="#292929"/>
<path d="M222.075 281.929L292.7 319.76L291.885 321.285L221.26 283.454L222.075 281.929Z" fill="#292929"/>
<path d="M366.442 300.89L367.257 302.415L296.622 340.227L295.807 338.702L366.442 300.89Z" fill="#292929"/>
<path d="M106.889 436.546C47.8558 436.546 0 338.822 0 218.273C0 97.7242 47.8558 0 106.889 0C165.922 0 213.778 97.7242 213.778 218.273C213.778 338.822 165.922 436.546 106.889 436.546Z" fill="#35A048"/>
<path d="M108.187 220.509C102.854 125.481 92.1094 61.2932 92.0014 60.6557L93.7047 60.367C93.8127 61.0049 104.572 125.268 109.911 220.386C114.839 308.174 116.028 440.958 93.7051 575L92.001 574.716C114.296 440.84 113.109 308.204 108.187 220.509Z" fill="#292929"/>
<path d="M11.2046 174.288L107.849 226.057L107.034 227.582L10.3892 175.813L11.2046 174.288Z" fill="#292929"/>
<path d="M209.059 200.235L209.874 201.76L113.215 253.503L112.4 251.978L209.059 200.235Z" fill="#292929"/>
<path d="M195.933 521.602C173.877 521.602 155.997 485.09 155.997 440.049C155.997 395.009 173.877 358.497 195.933 358.497C217.99 358.497 235.87 395.009 235.87 440.049C235.87 485.09 217.99 521.602 195.933 521.602Z" fill="#3C5D41"/>
<path d="M195.968 443.563L195.732 444.005L159.623 424.662L160.438 423.138L195.893 442.13C193.931 405.989 189.918 381.727 189.838 381.25L191.541 380.961C191.629 381.483 196.397 410.293 198.089 451.983L233.849 432.827L234.664 434.352L198.555 453.695L198.124 452.888C199.478 487.297 198.719 530.321 191.541 573.421L189.837 573.137C197.663 526.145 197.835 479.24 195.968 443.563Z" fill="#292929"/>
</svg>
