<svg width="886" height="378" viewBox="0 0 886 378" fill="none" xmlns="http://www.w3.org/2000/svg">
<g clip-path="url(#clip0_10_7317)">
<path d="M768 366H0V368H768V366Z" fill="#292929"/>
<g clip-path="url(#clip1_10_7317)">
<path d="M344.514 342.157L347.43 351.185C347.43 351.185 361.474 365.766 356.394 369.717C351.315 373.669 339.92 352.837 339.92 352.837L337.82 342.644L344.514 342.157Z" fill="#A47657"/>
<path d="M317.573 272.277L321.823 270.853C321.823 270.853 328.435 272.752 329.38 279.396C330.324 286.041 337.408 319.737 337.408 319.737C337.408 319.737 340.242 321.161 338.353 323.534C336.464 325.907 347.798 347.264 347.798 347.264L338.825 351.535C338.825 351.535 320.879 332.551 320.879 330.653C320.879 328.755 321.351 326.856 321.351 324.958C321.351 323.059 320.879 323.059 321.351 321.636C321.666 320.395 321.825 319.119 321.823 317.839L318.517 310.245L317.573 272.277Z" fill="#238DB9"/>
<path d="M323.352 227.225C315.761 214.223 300.742 213.618 300.742 213.618C300.742 213.618 286.107 211.721 276.719 231.523C267.968 249.98 255.891 267.8 274.774 272.121L278.185 261.36L280.298 272.922C282.986 273.118 285.683 273.165 288.377 273.062C308.599 272.4 327.858 273.256 327.238 265.9C326.414 256.122 330.656 239.736 323.352 227.225Z" fill="#2F2F31"/>
<path d="M270.438 331.369C270.226 332.728 269.919 334.071 269.518 335.386C269.066 336.673 268.369 337.863 267.956 339.164C266.64 343.309 268.465 347.93 271.379 351.13C273.898 353.889 277.161 355.853 280.771 356.783C283.4 357.453 286.133 357.55 288.842 357.643C296.344 357.901 304.039 358.131 311.147 355.688C313.394 354.896 315.563 353.897 317.627 352.704C318.28 352.388 318.855 351.929 319.309 351.362C319.851 350.579 319.92 349.564 319.915 348.608C319.9 345.385 319.255 342.178 319.408 338.958C319.493 337.174 319.822 335.392 319.66 333.614C319.442 331.602 318.611 329.707 317.281 328.187C315.95 326.667 314.186 325.597 312.227 325.123C310.211 324.684 308.119 324.923 306.066 325.123C300.738 325.642 295.386 325.885 290.032 325.85C284.562 325.814 279.126 324.968 273.684 324.88C272.074 324.854 272.107 325.356 271.594 326.935C271.122 328.389 270.736 329.87 270.438 331.369Z" fill="#DB2F30"/>
<path d="M249.049 328.749C247.579 328.375 246.063 328.211 244.547 328.264C242.953 328.365 241.399 328.802 239.985 329.548C238.57 330.293 237.328 331.329 236.34 332.59C235.36 333.868 234.657 335.338 234.274 336.905C233.891 338.472 233.837 340.102 234.115 341.691C234.482 343.412 235.082 345.075 235.899 346.632C237.093 349.088 238.525 351.539 240.735 353.113C242.066 353.978 243.5 354.67 245.003 355.172L256.645 359.618C258.358 360.272 260.07 360.926 261.8 361.532C270.484 364.575 279.545 366.401 288.725 366.958C291.521 367.127 294.358 367.174 297.085 366.528C297.752 366.44 298.362 366.106 298.797 365.591C299.019 365.198 299.15 364.761 299.18 364.31L299.896 359.227C300.057 358.519 300.036 357.781 299.835 357.084C299.507 356.23 298.685 355.692 297.9 355.235C290.247 350.78 281.31 348.322 274.868 342.206C273.352 340.766 272.083 338.484 270.24 337.507C268.151 336.398 265.69 335.765 263.53 334.743C258.809 332.509 254.166 329.942 249.049 328.749Z" fill="#DB2F30"/>
<path opacity="0.1" d="M260.672 335.602C264.786 336.909 282.159 345.964 285.137 349.125C284.738 349.271 271.195 341.578 270.789 341.454C267.095 340.331 263.381 339.2 259.873 337.555C259.167 337.224 255.289 335.67 255.464 334.767C255.663 333.749 259.941 335.37 260.672 335.602Z" fill="black"/>
<path d="M312.006 369.594C312.24 369.611 312.472 369.542 312.658 369.4C312.741 369.293 312.801 369.17 312.836 369.04C312.871 368.909 312.88 368.773 312.862 368.639L312.843 361.713C310.878 360.765 308.681 360.46 306.524 360.168L296.459 358.805C296.69 358.836 294.886 363.199 295.162 363.781C295.65 364.808 299.378 365.717 300.43 366.202C304.087 367.887 307.887 369.739 312.006 369.594Z" fill="#A47657"/>
<path d="M280.429 361.689C278.528 361.996 276.407 362.267 275.177 363.767C273.616 365.668 274.28 368.503 275.025 370.859C275.135 371.334 275.357 371.777 275.672 372.149C276.18 372.657 276.959 372.731 277.671 372.777C279.404 372.888 281.249 372.976 282.763 372.114C283.449 371.654 284.109 371.157 284.741 370.624C285.856 369.871 287.083 369.302 288.377 368.938C290.752 368.181 293.198 367.67 295.677 367.414C296.653 367.368 297.62 367.196 298.552 366.9C299.019 366.746 299.445 366.487 299.796 366.141C300.148 365.795 300.415 365.373 300.577 364.907C300.928 363.648 300.206 362.365 299.514 361.261C298.652 359.887 297.739 358.439 296.453 357.427C294.578 355.95 293.65 357.084 291.761 358.029C288.189 359.816 284.368 361.05 280.429 361.689Z" fill="#A47657"/>
<path d="M275.463 363.424L263.397 359.81C261.95 359.299 260.438 359.002 258.906 358.928C257.376 358.929 255.775 359.437 254.783 360.618C253.847 361.731 253.579 363.252 253.346 364.695L252.847 367.782C252.514 369.339 252.42 370.938 252.568 372.523C252.796 374.096 253.588 375.667 254.965 376.428C256.634 377.352 258.681 376.901 260.544 376.515C264.308 375.735 268.137 375.319 271.979 375.272C273.423 375.254 274.938 375.272 276.214 374.587C277.731 373.772 278.639 372.049 278.795 370.316C279.032 367.679 278.165 364.234 275.463 363.424Z" fill="#3F3F3F"/>
<path d="M316.749 360.274C318.313 359.996 319.694 359.095 321.193 358.563C323.302 357.815 325.588 357.815 327.824 357.823C328.644 357.826 329.518 357.845 330.201 358.306C331.186 358.97 331.438 360.3 331.605 361.487L332.616 368.648C332.806 369.994 332.994 371.377 332.698 372.704C332.402 374.031 331.509 375.311 330.21 375.653C328.632 376.069 327.086 375.047 325.596 374.376C321.872 372.699 317.544 373.127 313.662 371.874C312.941 371.641 312.169 371.285 311.875 370.579C311.743 370.181 311.695 369.759 311.737 369.342C311.803 367.04 311.324 363.897 312.008 361.697C312.623 359.719 315.003 360.274 316.749 360.274Z" fill="#3F3F3F"/>
<path d="M342.284 325.867C344.694 325.254 347.194 325.081 349.665 325.356C351.638 325.576 353.671 326.133 355.112 327.517C356.865 329.202 357.429 331.808 357.476 334.257C357.555 339.128 355.96 343.877 352.961 347.705C352.23 348.669 351.36 349.518 350.379 350.223C349.323 350.893 348.197 351.443 347.021 351.864L320.95 362.287C314.091 365.029 307.209 367.779 300.055 369.587C299.859 369.683 299.646 369.738 299.428 369.749C299.211 369.76 298.994 369.727 298.789 369.651C298.585 369.576 298.397 369.461 298.238 369.311C298.079 369.162 297.952 368.982 297.863 368.782C295.578 365.472 293.661 361.919 292.149 358.187C292.081 358.068 292.039 357.935 292.027 357.798C292.014 357.661 292.031 357.523 292.076 357.394C292.171 357.249 292.304 357.134 292.461 357.061L310.901 346.322C312.254 345.606 313.515 344.726 314.654 343.7C315.452 342.916 316.104 341.995 316.581 340.981C316.963 340.172 316.999 338.262 317.487 337.664C317.965 337.078 319.6 337.032 320.355 336.801C321.421 336.471 322.464 336.071 323.478 335.605C327.603 333.734 331.276 331.017 335.231 328.826C337.446 327.542 339.817 326.547 342.284 325.867Z" fill="#DB2F30"/>
<path opacity="0.1" d="M331.83 333.887C328.662 336.299 324.56 338.516 321.42 340.992C320.348 341.836 302.484 352.017 302.232 353.369C305.161 353.869 323.821 340.637 326.491 339.317C329.161 337.996 331.527 336.134 333.872 334.286C334.47 333.815 337.003 332.399 335.287 331.873C334.321 331.576 332.543 333.405 331.83 333.887Z" fill="black"/>
<path d="M300.099 259.938C310.01 259.938 318.045 251.863 318.045 241.903C318.045 231.942 310.01 223.868 300.099 223.868C290.188 223.868 282.153 231.942 282.153 241.903C282.153 251.863 290.188 259.938 300.099 259.938Z" fill="#A47657"/>
<path d="M307.655 257.09C307.655 257.09 304.822 264.209 310.017 267.057C315.212 269.904 293.96 292.685 293.96 292.685L284.514 265.158C284.514 265.158 292.543 262.311 291.126 254.717L307.655 257.09Z" fill="#A47657"/>
<path d="M295.849 276.549L307.286 263.86L322.768 271.803L320.407 327.805L316.628 332.077C316.628 332.077 300.571 346.315 276.014 334.45C276.014 334.45 267.513 327.331 267.985 316.415C268.457 305.499 267.04 304.075 267.04 304.075L266.568 265.633L289.885 261.035L295.849 276.549Z" fill="#238DB9"/>
<path d="M243.405 336.936L240.489 345.965C240.489 345.965 226.446 360.545 231.525 364.497C236.604 368.449 247.999 347.616 247.999 347.616L250.1 337.424L243.405 336.936Z" fill="#A47657"/>
<path d="M270.346 267.057L266.096 265.633C266.096 265.633 259.484 267.531 258.54 274.176C257.595 280.82 250.511 314.517 250.511 314.517C250.511 314.517 247.678 315.94 249.567 318.313C251.456 320.686 240.121 342.043 240.121 342.043L249.094 346.315C249.094 346.315 267.04 327.331 267.04 325.432C267.04 323.534 266.568 321.636 266.568 319.737C266.568 317.839 267.04 317.839 266.568 316.415C266.253 315.174 266.094 313.899 266.096 312.618L269.402 305.025L270.346 267.057Z" fill="#238DB9"/>
<path d="M319.996 225.972L305.158 218.094L284.667 221.316L280.428 240.296L290.981 239.885L293.929 232.912V239.769L298.799 239.58L301.625 228.479L303.391 240.296L320.702 239.938L319.996 225.972Z" fill="#2F2F31"/>
</g>
<g clip-path="url(#clip2_10_7317)">
<path d="M199.714 371.135L228.075 370.336C228.075 370.336 225.941 357.672 232.79 354.158C237.458 351.76 241.602 340.563 240.423 332.944C240.407 332.843 240.391 332.741 240.373 332.642C239.776 329.231 238.068 326.589 234.803 325.872C224.247 323.554 216.714 325.351 216.714 325.351C216.714 325.351 214.97 325.373 212.386 325.854C212.294 325.87 212.202 325.887 212.11 325.907C204.795 327.329 191.275 332.39 190.689 350.359C189.884 375.047 199.714 371.131 199.714 371.131V371.135Z" fill="#F8B039"/>
<path d="M212.386 325.856C212.434 327.144 212.729 328.424 213.266 329.64C214.381 332.163 216.413 334.089 218.987 335.065C226.696 337.991 235.693 335.089 240.243 331.942C240.261 332.042 240.622 333.928 240.638 334.029C238.623 335.397 228.763 336.715 226.893 336.715C224.052 336.715 221.318 336.248 218.887 335.323C216.243 334.32 214.156 332.34 213.012 329.75C212.464 328.513 212.164 327.215 212.11 325.907C212.202 325.887 212.294 325.87 212.386 325.854V325.856Z" fill="#E2A134"/>
<path d="M210.289 327.496L214.81 316.223C214.81 316.223 209.383 307 213.647 305.976C217.911 304.95 222.302 310.458 222.302 310.458C222.302 310.458 230.441 307.64 233.54 309.945C233.54 309.945 238.707 302.772 241.806 304.181C244.907 305.59 240.704 315.746 240.704 315.746C240.704 315.746 247.102 325.061 242.193 330.439C237.284 335.82 218.813 340.176 210.287 327.494L210.289 327.496Z" fill="#F8B039"/>
<path d="M200.594 364.389C199.054 365.069 197.447 365.76 195.763 365.695C194.079 365.629 192.309 364.554 192.046 362.904C191.91 362.051 192.179 361.139 191.85 360.34C191.407 359.266 189.98 358.851 188.871 359.219C187.761 359.586 186.947 360.536 186.362 361.54C185.267 363.421 184.83 365.89 186.003 367.722C187.019 369.311 188.947 370.03 190.739 370.646C193.129 371.467 195.795 372.28 198.11 371.272C200.437 370.259 201.706 367.331 200.844 364.959" fill="#E2A134"/>
<path d="M226.059 322.429C226.059 322.429 228.841 321.325 230.647 322.705L228.56 325.878L226.057 322.431L226.059 322.429Z" fill="#E2A134"/>
<path d="M240.662 336.908L235.516 364.077C235.516 364.077 243.304 371.938 233.291 371.799C223.279 371.662 226.199 366.559 226.199 366.559L229.398 342.976" fill="#F8B039"/>
<path d="M233.544 372C236.256 372 237.895 371.384 238.421 370.165C239.377 367.947 236.264 364.566 235.731 364.009L239.19 343.698L238.795 343.632L235.302 364.142L235.374 364.214C235.41 364.25 238.97 367.881 238.052 370.008C237.581 371.102 235.983 371.636 233.293 371.598C229.555 371.547 227.145 370.77 226.323 369.352C225.584 368.076 226.366 366.669 226.374 366.655L226.392 366.621L226.398 366.583L228.623 350.172L228.226 350.119L226.005 366.494C225.872 366.742 225.181 368.176 225.973 369.547C226.881 371.117 229.342 371.942 233.287 371.996C233.373 371.996 233.458 371.996 233.542 371.996L233.544 372Z" fill="#E2A134"/>
<path d="M227.59 336.908L222.445 364.077C222.445 364.077 230.232 371.938 220.22 371.799C210.207 371.662 213.128 366.559 213.128 366.559L216.327 342.976" fill="#F8B039"/>
<path d="M220.472 372C223.184 372 224.824 371.384 225.349 370.165C226.305 367.951 223.198 364.574 222.661 364.011L224.728 353.078L224.333 353.005L222.228 364.14L222.302 364.214C222.339 364.25 225.899 367.881 224.98 370.008C224.509 371.102 222.91 371.638 220.222 371.598C216.481 371.547 214.07 370.77 213.25 369.348C212.51 368.068 213.294 366.669 213.302 366.655L213.322 366.621L216.525 343L216.129 342.947L212.935 366.494C212.803 366.742 212.112 368.176 212.903 369.547C213.811 371.117 216.273 371.942 220.218 371.996C220.304 371.996 220.388 371.996 220.472 371.996V372Z" fill="#E2A134"/>
</g>
<path d="M738.843 187.362L736.342 127.666C736.342 127.666 733.533 92.2262 731.286 79.8502C729.039 67.4743 713.871 70.8495 713.871 70.8495L715.557 106.29L722.828 142.558L728.488 191.945C728.196 193.374 728.031 194.927 728.031 196.557C728.031 203.476 730.916 209.085 734.476 209.085C738.035 209.085 740.921 203.476 740.921 196.557C740.921 192.918 740.117 189.651 738.843 187.362Z" fill="#F3CFC2"/>
<path d="M617.121 171.894C619.78 168.723 622.965 166.568 625.824 165.738L659.457 127.666C659.457 127.666 662.266 92.2262 664.513 79.8503C666.76 67.4743 681.928 70.8496 681.928 70.8496L680.243 106.29L670.693 144.543L631.337 178.001C630.65 179.255 629.807 180.508 628.798 181.711C624.01 187.422 617.515 189.854 614.29 187.143C611.066 184.432 612.333 177.605 617.121 171.894Z" fill="#F3CFC2"/>
<path d="M691.119 66.068L695.021 51.0489L710.22 50.3168L714.767 71.0201L691.119 66.068Z" fill="#F3CFC2"/>
<path opacity="0.1" d="M691.119 66.068L695.021 51.0489L710.22 50.3168L714.767 71.0201L691.119 66.068Z" fill="black" fill-opacity="0.5"/>
<path d="M652.308 312.122L638.073 311.307L639.94 355.055L649.586 355.608L652.308 312.122Z" fill="#F3CFC2"/>
<path d="M638.707 341.223L643.65 343.481L643.643 346.481C643.643 346.481 644.836 343.009 651.237 342.251L652.001 345.16C652.001 345.16 654.484 348.013 654.058 353.175L652.428 366.997L647.601 366.885L646.821 357.267C646.821 357.267 645.491 355.085 639.366 365.455C639.366 365.455 632.618 367.158 622.169 363.65C620.733 363.168 619.736 361.825 619.754 360.309C619.765 359.472 620.091 358.698 621.14 358.421C623.807 357.714 626.413 358.61 628.136 356.477C629.859 354.345 638.707 341.223 638.707 341.223Z" fill="#3F3F3F"/>
<path d="M728.709 312.122L714.474 311.307L716.341 355.055L725.987 355.608L728.709 312.122Z" fill="#F3CFC2"/>
<path d="M715.108 341.223L720.051 343.481L720.044 346.481C720.044 346.481 721.237 343.009 727.638 342.251L728.402 345.16C728.402 345.16 730.885 348.013 730.459 353.175L728.829 366.997L724.002 366.885L723.222 357.267C723.222 357.267 721.892 355.085 715.767 365.455C715.767 365.455 709.019 367.158 698.57 363.65C697.134 363.168 696.136 361.825 696.155 360.309C696.166 359.472 696.492 358.698 697.54 358.421C700.208 357.714 702.814 358.61 704.537 356.477C706.26 354.345 715.108 341.223 715.108 341.223Z" fill="#3F3F3F"/>
<path d="M702.805 59.8937C712.113 59.8937 719.658 52.3379 719.658 43.0174C719.658 33.6969 712.113 26.1411 702.805 26.1411C693.497 26.1411 685.952 33.6969 685.952 43.0174C685.952 52.3379 693.497 59.8937 702.805 59.8937Z" fill="#F3CFC2"/>
<path d="M712.362 45.8228C712.362 45.8228 704.952 33.6821 697.535 35.0221C690.118 36.3622 686.251 37.572 686.251 37.572C686.251 37.572 683.231 27.8922 693.372 23.2481C693.372 23.2481 679.021 11.2163 694.316 3.49467C709.61 -4.22694 719.128 3.25655 719.128 3.25655C719.128 3.25655 731.787 14.0071 717.752 23.9562C717.752 23.9562 729.899 37.8128 717.63 51.0489C717.63 51.0489 719.796 40.9703 716.849 43.0365C713.903 45.1026 712.362 45.8228 712.362 45.8228Z" fill="#523F23"/>
<path d="M714.152 67.1931L691.119 64.3803L673.424 78.7252C673.424 78.7252 664.623 103.28 671.177 118.103C671.334 118.458 671.457 143.136 671.457 143.136H720.393C720.393 143.136 720.346 126.339 722.216 120.256C722.483 119.386 722.789 118.736 723.14 118.384C725.949 115.572 732.691 97.5703 729.32 89.6947C725.949 81.8192 714.152 67.1931 714.152 67.1931Z" fill="#DB2F30"/>
<path d="M671.176 142.011L640.279 240.456L633.538 318.087H652.357L668.368 246.081L690.416 204.4L712.186 323.712H731.182L730.724 162.263L720.354 142.011H671.176Z" fill="#238DB9"/>
<path d="M618.349 186.523C613.568 178.814 602.415 177 594.131 180.678C585.846 184.355 580.12 192.195 576.227 200.39C572.335 208.584 569.886 217.412 565.885 225.554C554.113 249.51 530.274 265.156 515.278 287.231C504.011 303.818 498.044 323.958 498.455 344.014C498.613 351.696 499.853 359.778 504.641 365.783C511.747 374.696 524.328 376.524 535.657 377.698C542.238 378.379 550.315 378.36 553.704 372.67C555.045 370.42 540.639 362.568 540.87 359.958C542.117 345.872 558.033 336.927 559.28 322.841C561.235 332.656 558.729 342.788 559.125 352.789C559.52 362.789 564.443 374.101 574.222 376.169C577.24 376.807 580.647 376.365 582.934 374.293C585.221 372.221 585.889 368.307 583.852 365.989C585.938 368.123 589.459 368.677 592.098 367.288C594.738 365.898 596.278 362.68 595.706 359.749C595.286 357.594 593.897 355.781 592.694 353.945C586.179 343.998 584.481 331.037 588.215 319.745C594.816 299.783 616.492 286.753 620.164 266.049C622.89 250.674 615.111 233.251 623.366 220.003C627.087 214.032 633.404 210.269 638.443 205.363C643.481 200.457 647.421 192.951 644.538 186.533L618.784 186.505" fill="#F8B039"/>
<path d="M538.926 362.746C538.285 362.746 537.628 362.574 536.994 362.233C535.532 361.448 534.429 359.896 534.185 358.278C533.778 355.588 535.058 352.975 536.086 350.876C538.899 345.134 541.68 338.994 542.09 332.615C542.537 325.65 539.716 319.194 534.902 316.167C531.325 313.918 526.548 313.34 521.453 314.54C516.941 315.602 512.886 317.775 508.432 320.295C508.078 320.495 507.63 320.37 507.43 320.016C507.231 319.662 507.355 319.213 507.709 319.013C512.095 316.531 516.421 314.212 521.117 313.106C526.597 311.816 531.771 312.46 535.684 314.921C540.948 318.231 544.039 325.213 543.557 332.71C543.13 339.358 540.284 345.65 537.406 351.524C536.419 353.539 535.301 355.823 535.639 358.058C535.814 359.215 536.637 360.371 537.689 360.936C538.201 361.211 538.982 361.459 539.793 361.081C540.162 360.908 540.599 361.069 540.77 361.437C540.941 361.806 540.782 362.244 540.414 362.415C539.941 362.636 539.439 362.746 538.926 362.746Z" fill="#E2A134"/>
<path d="M595.27 186.017C594.307 188.658 595.591 191.617 597.372 193.79C599.152 195.964 601.438 197.711 603.007 200.042C606.295 204.928 605.802 211.608 603.275 216.929C600.749 222.25 596.49 226.513 592.313 230.663C592.621 228.883 591.723 227.087 590.499 225.761C589.274 224.435 587.733 223.451 586.364 222.276C579.988 216.802 577.993 206.828 581.773 199.318" fill="#E2A134"/>
<path d="M508.182 343.105C502.781 342.442 498.219 347.308 492.829 348.055C486.596 348.917 480.864 343.979 478.091 338.323C475.318 332.667 474.606 326.247 472.699 320.243C470.791 314.239 467.11 308.158 461.113 306.25C458.598 305.449 455.751 305.492 453.414 306.721C451.077 307.95 449.364 310.459 449.422 313.102C449.494 316.354 451.985 318.957 453.493 321.837C455.894 326.421 455.819 331.849 456.88 336.915C459.429 349.094 469.323 359.422 481.368 362.48C487.598 364.061 494.571 363.699 499.967 360.204C505.363 356.709 508.652 349.671 506.655 343.555" fill="#F8B039"/>
</g>
<defs>
<clipPath id="clip0_10_7317">
<rect width="886" height="378" fill="white"/>
</clipPath>
<clipPath id="clip1_10_7317">
<rect width="128" height="164" fill="white" transform="translate(230 213)"/>
</clipPath>
<clipPath id="clip2_10_7317">
<rect width="60" height="69" fill="white" transform="matrix(-1 0 0 1 245 303)"/>
</clipPath>
</defs>
</svg>
