<svg width="761" height="630" viewBox="0 0 761 630" fill="none" xmlns="http://www.w3.org/2000/svg">
<path opacity="0.5" d="M629.972 590.047C649.607 581.669 667.299 569.413 681.902 554.074C696.504 538.735 707.691 520.656 714.738 501.008C728.441 461.895 724.693 419.663 719.359 379.036C717.263 367.183 716.649 355.098 717.53 343.04C720.139 321.327 732.524 301.9 741.772 281.845C765.295 230.661 766.517 171.616 748.684 119.461C733.104 73.395 694.388 9.30289 640.066 2.94192C560.155 -6.1524 478.854 11.687 409.695 53.4907C366.144 80.0043 327.387 116.073 278.547 131.078C229.707 146.083 176.405 138.156 127.211 151.978C99.4608 160.078 74.0854 174.746 53.3926 194.649C32.6998 214.551 17.3462 239.056 8.72807 265.935C1.76434 290.405 -1.05137 315.731 0.392729 340.908C1.45809 371.456 6.25651 401.696 14.6872 430.99C41.7208 524.16 135.4 592.021 230.243 611.56C441.961 655.02 582.016 610.147 629.972 590.047Z" fill="#DEDEDE"/>
</svg>
