<svg width="269" height="271" viewBox="0 0 269 271" fill="none" xmlns="http://www.w3.org/2000/svg">
<path d="M233.83 30.1972C228.845 20.0516 215.24 16.4372 204.52 19.9839C193.8 23.5307 185.742 32.5539 179.915 42.2402C174.087 51.9266 169.972 62.5764 164.017 72.1844C146.494 100.454 115.027 116.941 93.7379 142.485C77.7418 161.678 67.883 185.925 65.9414 210.85C65.1977 220.397 65.7478 230.573 70.9494 238.606C78.6698 250.53 94.0442 254.337 107.946 257.179C116.021 258.83 126.037 259.795 130.934 253.153C132.871 250.526 115.971 239.025 116.576 235.816C119.844 218.498 140.669 209.352 143.937 192.035C145.162 204.447 140.816 216.707 140.084 229.158C139.352 241.61 144.072 256.242 155.943 260.003C159.606 261.164 163.884 261.033 166.973 258.743C170.062 256.454 171.368 251.681 169.126 248.556C171.451 251.458 175.749 252.576 179.191 251.176C182.633 249.776 184.936 245.973 184.585 242.268C184.327 239.544 182.827 237.126 181.56 234.701C174.699 221.568 174.179 205.285 180.188 191.736C190.811 167.786 219.276 154.28 226.359 129.051C231.619 110.316 224.104 87.7557 235.958 72.3349C241.3 65.3855 249.592 61.4908 256.439 56.0229C263.285 50.5549 269.087 41.728 266.297 33.4154L234.371 30.2284" fill="#F8B039"/>
<path d="M113.826 239.04C113.031 238.962 112.238 238.669 111.493 238.168C109.776 237.015 108.599 234.955 108.494 232.919C108.319 229.533 110.225 226.449 111.756 223.971C115.945 217.194 120.143 209.92 121.431 202.058C122.837 193.475 120.128 185.122 114.531 180.779C110.37 177.552 104.519 176.25 98.0561 177.115C92.3315 177.88 87.0399 180.078 81.2097 182.659C80.7467 182.864 80.2062 182.654 80.0019 182.19C79.7974 181.727 80.007 181.185 80.4696 180.98C86.2112 178.439 91.8579 176.092 97.8139 175.295C104.767 174.367 111.102 175.798 115.652 179.329C121.774 184.078 124.752 193.117 123.238 202.355C121.896 210.548 117.599 218.003 113.313 224.937C111.844 227.315 110.178 230.011 110.323 232.824C110.399 234.28 111.279 235.815 112.513 236.644C113.114 237.048 114.052 237.451 115.104 237.081C115.582 236.912 116.104 237.165 116.272 237.643C116.439 238.121 116.188 238.645 115.711 238.812C115.098 239.028 114.462 239.103 113.826 239.04Z" fill="#E2A134"/>
<path d="M205.282 26.7418C203.765 29.8986 204.996 33.726 206.937 36.6393C208.878 39.5526 211.499 42.0001 213.159 45.0831C216.638 51.5454 215.21 59.7696 211.428 66.0597C207.645 72.3499 201.844 77.116 196.158 81.7511C196.758 79.5821 195.864 77.2446 194.508 75.4502C193.152 73.6558 191.362 72.2464 189.808 70.6211C182.572 63.0522 181.318 50.4375 186.922 41.5861" fill="#E2A134"/>
<path d="M78.1149 210.92C71.5002 209.437 65.2494 214.914 58.4761 215.18C50.6435 215.487 44.141 208.661 41.3943 201.307C38.6477 193.953 38.5501 185.904 36.9188 178.224C35.2875 170.543 31.4676 162.551 24.2667 159.45C21.2456 158.149 17.7113 157.855 14.6636 159.093C11.6159 160.331 9.18564 163.233 8.93509 166.518C8.62679 170.56 11.3961 174.093 12.9144 177.85C15.3303 183.829 14.5744 190.552 15.2698 196.964C16.9419 212.381 27.9447 226.401 42.5047 231.667C50.0341 234.391 58.7235 234.795 65.8404 231.122C72.9573 227.448 77.895 219.121 76.1662 211.291" fill="#F8B039"/>
</svg>
