<svg width="70" height="79" viewBox="0 0 70 79" fill="none" xmlns="http://www.w3.org/2000/svg">
<g clip-path="url(#clip0_172_1872)">
<path d="M52.7498 78.0124L20.1232 77.0998C20.1232 77.0998 22.579 62.6381 14.6996 58.6248C9.32912 55.8873 4.56276 43.1007 5.91865 34.4001C5.9371 34.2843 5.95554 34.1685 5.9763 34.055C6.66346 30.1598 8.62812 27.1431 12.3845 26.3236C24.5275 23.6769 33.1932 25.7289 33.1932 25.7289C33.1932 25.7289 35.1993 25.7539 38.1717 26.3032C38.2778 26.3213 38.3838 26.3418 38.4899 26.3645C46.9042 27.9875 62.4577 33.7667 63.1311 54.287C64.058 82.4796 52.7498 78.0078 52.7498 78.0078V78.0124Z" fill="#F8B039"/>
<path d="M38.1717 26.3054C38.1163 27.7763 37.7774 29.2382 37.1594 30.6274C35.8773 33.5079 33.5391 35.7075 30.5782 36.8221C21.7096 40.1634 11.3606 36.8493 6.12619 33.256C6.10544 33.3695 5.69037 35.5236 5.67192 35.6394C7.98938 37.2011 19.3322 38.7061 21.4837 38.7061C24.7512 38.7061 27.8965 38.1727 30.6935 37.1171C33.7351 35.9708 36.1355 33.71 37.4522 30.7522C38.0817 29.3403 38.4276 27.8581 38.4899 26.3644C38.3838 26.3417 38.2777 26.3213 38.1717 26.3032V26.3054Z" fill="#E2A134"/>
<path d="M40.5837 28.1782L35.3838 15.3053C35.3838 15.3053 41.6259 4.77283 36.7212 3.60381C31.8165 2.43252 26.7642 8.72252 26.7642 8.72252C26.7642 8.72252 17.4022 5.50375 13.8372 8.13687C13.8372 8.13687 7.89252 -0.0553311 4.32755 1.55405C0.760281 3.16344 5.59581 14.7606 5.59581 14.7606C5.59581 14.7606 -1.76471 25.3975 3.88251 31.5399C9.52973 37.6847 30.7789 42.6581 40.586 28.1759L40.5837 28.1782Z" fill="#F8B039"/>
<path d="M51.7375 70.3082C53.5084 71.0845 55.3578 71.8745 57.2947 71.7995C59.2317 71.7246 61.2678 70.4966 61.5699 68.6126C61.7267 67.6387 61.4177 66.5968 61.7959 65.6843C62.3055 64.4586 63.9473 63.9842 65.2225 64.4041C66.5 64.824 67.4362 65.9091 68.1095 67.0554C69.3686 69.2027 69.8713 72.022 68.5223 74.1149C67.3532 75.9286 65.1349 76.7503 63.0734 77.454C60.3247 78.3914 57.2578 79.3198 54.5945 78.169C51.9173 77.0113 50.4577 73.6677 51.4492 70.9597" fill="#E2A134"/>
<path d="M22.4429 22.3921C22.4429 22.3921 19.2423 21.1322 17.1647 22.7076L19.5651 26.3304L22.4452 22.3943L22.4429 22.3921Z" fill="#E2A134"/>
<path d="M5.64424 38.9263L11.5636 69.9518C11.5636 69.9518 2.60502 78.9294 14.1231 78.7705C25.6413 78.6139 22.2815 72.787 22.2815 72.787L18.6012 45.8564" fill="#F8B039"/>
<path d="M13.8326 78.9998C10.7127 78.9998 8.82642 78.2961 8.22227 76.9046C7.12234 74.3714 10.7034 70.5102 11.3168 69.8746L7.33679 46.6804L7.79106 46.6055L11.8103 70.0267L11.7273 70.1084C11.6858 70.1493 7.59044 74.2965 8.64656 76.7253C9.18845 77.9738 11.0263 78.5844 14.1208 78.5412C18.4214 78.4822 21.1931 77.5947 22.1385 75.9762C22.9894 74.5189 22.0901 72.9118 22.0809 72.8959L22.0601 72.8573L22.0532 72.8142L19.4936 54.0736L19.9502 54.0123L22.5052 72.7121C22.6574 72.9958 23.4529 74.6324 22.5421 76.1987C21.4975 77.9919 18.6658 78.9339 14.1277 78.9952C14.0286 78.9952 13.9317 78.9952 13.8349 78.9952L13.8326 78.9998Z" fill="#E2A134"/>
<path d="M20.6812 38.9263L26.6005 69.9518C26.6005 69.9518 17.642 78.9294 29.1601 78.7705C40.6782 78.6139 37.3185 72.787 37.3185 72.787L33.6382 45.8564" fill="#F8B039"/>
<path d="M28.8695 78.9998C25.7496 78.9998 23.8634 78.2961 23.2592 76.9046C22.1593 74.3759 25.7335 70.5193 26.3515 69.8769L23.9741 57.3922L24.4283 57.3082L26.8495 70.0244L26.7642 70.1084C26.7227 70.1493 22.6274 74.2965 23.6835 76.7253C24.2254 77.9738 26.0655 78.5866 29.1578 78.5412C33.4606 78.4822 36.2347 77.5947 37.1778 75.9717C38.0287 74.5098 37.1271 72.9118 37.1178 72.8959L37.0948 72.8573L33.4099 45.8836L33.8665 45.8224L37.5398 72.712C37.692 72.9958 38.4876 74.6324 37.5767 76.1987C36.5321 77.9919 33.7005 78.9339 29.1624 78.9952C29.0632 78.9952 28.9664 78.9952 28.8695 78.9952V78.9998Z" fill="#E2A134"/>
</g>
<defs>
<clipPath id="clip0_172_1872">
<rect width="69.0224" height="78.7942" fill="white" transform="translate(0.653564 0.205536)"/>
</clipPath>
</defs>
</svg>
