<svg width="967" height="764" viewBox="0 0 967 764" fill="none" xmlns="http://www.w3.org/2000/svg">
<path opacity="0.5" d="M560.11 762.287C585.677 765.014 611.48 762.522 635.845 754.973C660.211 747.424 682.596 734.987 701.548 718.468C738.935 685.394 759.806 638.787 778.067 592.937C782.826 579.243 789.28 566.175 797.291 554.015C812.791 532.717 837.226 519.568 858.732 503.914C913.537 463.917 949.511 402.553 961.401 337.238C972.084 279.649 969.031 189.514 915.652 150.911C836.973 94.4005 741.009 65.3926 643.732 68.7154C582.364 71.0063 520.423 86.1601 460.255 73.2433C400.087 60.3264 348.701 20.6772 288.855 6.30849C254.919 -1.47861 219.62 -0.964335 186.17 7.80469C152.72 16.5737 122.18 33.3191 97.3267 56.518C75.6285 78.1554 57.7888 103.13 44.5157 130.45C27.6884 163.196 14.968 197.81 6.62154 233.565C-19.6919 347.409 38.9375 473.799 127.18 550.063C324.256 720.145 497.879 755.246 560.11 762.287Z" fill="#DEDEDE"/>
</svg>
