<svg width="119" height="195" viewBox="0 0 119 195" fill="none" xmlns="http://www.w3.org/2000/svg">
<path d="M72.4373 0.650146L47.7538 2.2434L31.5565 22.9981L4.60607 43.5449L21.7055 95.6111C21.7055 95.6111 20.8635 122.22 17.9857 125.563C15.108 128.907 10.3305 124.924 15.108 132.093C18.0206 136.636 19.6697 141.874 19.8854 147.267C19.8854 147.267 -7.33754 169.933 2.36813 175.907C12.0738 181.882 31.6778 166.348 41.7064 175.509C51.735 184.67 118.356 203.118 118.619 190.247C118.883 177.375 101.984 76.8683 101.984 76.8683L105.879 28.532L83.5847 13.3961L72.4373 0.650146Z" fill="#DB2F30"/>
</svg>
