<svg width="78" height="156" viewBox="0 0 78 156" fill="none" xmlns="http://www.w3.org/2000/svg">
<path d="M0.565857 0.938448L0.99143 0.877198C4.9504 0.308827 8.98817 0.714443 12.7552 2.05891C16.5222 3.40339 19.9049 5.64619 22.6104 8.59317C29.6736 16.2771 39.042 27.8966 44.6998 40.6346C54.6924 63.1315 58.5183 73.3706 59.1641 82.0916C59.8099 90.8127 57.4693 88.794 61.3113 93.3321C65.1533 97.8702 66.8481 91.1679 66.6546 100.39C66.461 109.611 62.942 109.434 66.6225 111.792C70.303 114.149 72.8211 112.647 71.9657 118.849C71.1103 125.051 72.1112 126.73 72.2726 128.911C72.4341 131.091 77.4223 145.19 77.4223 145.19C77.4223 145.19 61.4899 149.002 54.9362 155.187C54.9362 155.187 54.6454 139.425 51.4653 137.907C48.2853 136.389 45.2666 137.051 46.2835 133.029C47.3005 129.008 51.9979 127.344 46.2996 127.328C40.6013 127.312 6.36217 53.753 6.36217 53.753L0.565857 0.938448Z" fill="#DB2F30"/>
</svg>
