<svg width="44" height="164" viewBox="0 0 44 164" fill="none" xmlns="http://www.w3.org/2000/svg">
<path d="M19.1041 0.489685L18.7072 0.655117C15.0158 2.19521 11.7552 4.61225 9.20772 7.697C6.66026 10.7818 4.90268 14.4412 4.08718 18.3586C1.95323 28.5772 -0.146374 43.3574 1.51362 57.1972C4.44531 81.6401 -1.56257 92.395 2.34643 100.217C6.25544 108.038 7.23267 105.105 6.25542 110.972C5.27817 116.838 0.391913 111.949 5.27816 119.771C10.1644 127.593 13.0961 125.637 11.1417 129.548C9.1872 133.459 6.25544 133.459 10.1644 138.348C14.0734 143.236 14.0734 145.192 15.0506 147.147C16.0279 149.103 18.9596 163.768 18.9596 163.768C18.9596 163.768 34.5955 158.88 43.3907 160.835C43.3907 160.835 35.5727 147.147 37.5272 144.214C39.4817 141.281 42.4134 140.303 39.4817 137.37C36.5499 134.437 31.6637 135.414 36.55 132.481C41.4362 129.548 37.4403 69.991 37.4403 69.991L19.1041 0.489685Z" fill="#DB2F30"/>
</svg>
