<svg width="60" height="55" viewBox="0 0 60 55" fill="none" xmlns="http://www.w3.org/2000/svg">
<path d="M59.9621 27.6455C57.2931 28.8631 55.5637 37.6816 53.4659 35.6315C51.3681 33.5813 51.5081 30.9134 48.6799 30.1569C46.3959 29.5433 43.938 30.2445 41.8547 31.3505C41.4827 31.5457 41.1221 31.7578 40.7706 31.9689C40.5386 31.8138 40.3077 31.6679 40.0598 31.5332C38.1963 30.5355 36.0214 30.2907 33.9829 30.8493C35.5937 31.3891 36.9941 32.4218 37.9861 33.8014C37.2889 34.2689 36.5826 34.7376 35.8603 35.1528C29.8253 38.6372 21.2378 31.0606 14.8854 28.2143C18.8644 35.6846 16.9051 38.7785 13.4503 46.5044L13.331 46.9444C13.5272 45.008 7.53823 43.565 7.88553 46.2908C8.49232 49.0514 9.45302 51.7221 10.7438 54.2365C4.06496 46.5102 -0.499117 37.0553 0.463967 27.3019C0.673609 25.253 0.610402 23.0911 1.66669 21.3128C2.72409 19.5436 4.9286 18.3022 6.87886 18.9768C6.71363 15.8663 7.39395 12.7692 8.84753 10.0146C10.3011 7.26006 12.4736 4.95108 15.134 3.33313C17.7945 1.71519 20.8434 0.848762 23.9567 0.825962C27.07 0.803163 30.1313 1.62484 32.8151 3.20365C35.3089 4.66768 37.3909 6.73829 39.6765 8.52436C41.9622 10.3104 44.5971 11.8673 47.4954 12.0147C49.3341 12.1034 51.3349 11.6543 52.9146 12.6071C54.7444 13.7126 55.0577 16.0272 55.3323 18.2544C53.7002 18.4154 52.1532 19.0595 50.8888 20.1046C52.5775 19.9322 54.2775 20.297 55.7469 21.1471C55.7748 21.1597 55.8014 21.1748 55.8265 21.1923C56.7939 24.8732 56.6949 25.6892 59.9621 27.6455Z" fill="#BA975E"/>
</svg>
