<svg width="160" height="251" viewBox="0 0 160 251" fill="none" xmlns="http://www.w3.org/2000/svg">
<path d="M66.3168 0.362854C66.3168 0.362854 -11.9424 84.6105 1.5937 109.306C15.1298 134.001 80.4215 218.443 80.4215 218.443L98.3213 197.88C83.2775 162.167 67.0902 130.954 48.2061 110.357L102.926 69.9138C102.926 69.9138 106.953 136.862 103.64 147.381C100.328 157.9 94.7539 152.324 100.328 157.9C105.901 163.476 108.713 164.5 105.715 167.971C102.716 171.443 100.56 250.522 100.56 250.522H126.309C126.309 250.522 150.338 104.834 148.822 99.5022C147.306 94.17 148.175 96.6148 148.139 89.816C148.102 83.0173 159.09 27.3201 159.09 27.3201L66.3168 0.362854Z" fill="#DB2F30"/>
</svg>
